<svg xmlns="http://www.w3.org/2000/svg" width="83" height="26" viewBox="0 0 83 26">
    <g fill="none" fill-rule="nonzero">
        <path fill="#4285F4" d="M10.445 9.258v2.781h6.647c-.203 1.56-.723 2.702-1.515 3.504-.972.973-2.487 2.035-5.132 2.035-4.092 0-7.291-3.3-7.291-7.393 0-4.092 3.199-7.393 7.291-7.393 2.205 0 3.821.87 5.008 1.99l1.956-1.956C15.759 1.221 13.543 0 10.445 0 4.838 0 .125 4.567.125 10.174c0 5.607 4.713 10.174 10.32 10.174 3.03 0 5.313-.995 7.1-2.849 1.83-1.831 2.407-4.42 2.407-6.5 0-.644-.045-1.243-.147-1.74h-9.36z"/>
        <path fill="#EA4335" d="M28.26 6.997c-3.628 0-6.59 2.759-6.59 6.568 0 3.776 2.962 6.568 6.59 6.568 3.63 0 6.591-2.78 6.591-6.568 0-3.81-2.961-6.568-6.59-6.568zm0 10.547c-1.989 0-3.707-1.639-3.707-3.979 0-2.362 1.718-3.979 3.708-3.979 1.99 0 3.708 1.617 3.708 3.98 0 2.34-1.719 3.978-3.708 3.978z"/>
        <path fill="#4285F4" d="M60.569 8.467h-.102c-.644-.769-1.888-1.47-3.46-1.47-3.277 0-6.137 2.86-6.137 6.568 0 3.685 2.86 6.568 6.138 6.568 1.571 0 2.815-.7 3.459-1.492h.102v.916c0 2.51-1.346 3.854-3.505 3.854-1.763 0-2.86-1.266-3.312-2.34l-2.51 1.04c.724 1.741 2.635 3.878 5.822 3.878 3.38 0 6.24-1.99 6.24-6.84V7.338H60.57v1.13zm-3.312 9.077c-1.99 0-3.505-1.695-3.505-3.979 0-2.317 1.515-3.979 3.505-3.979 1.966 0 3.504 1.696 3.504 4.002.011 2.295-1.538 3.956-3.504 3.956z"/>
        <path fill="#FBBC05" d="M42.957 6.997c-3.63 0-6.59 2.759-6.59 6.568 0 3.776 2.96 6.568 6.59 6.568 3.628 0 6.59-2.78 6.59-6.568 0-3.81-2.962-6.568-6.59-6.568zm0 10.547c-1.99 0-3.708-1.639-3.708-3.979 0-2.362 1.718-3.979 3.708-3.979 1.99 0 3.707 1.617 3.707 3.98 0 2.34-1.718 3.978-3.707 3.978z"/>
        <path fill="#34A853" d="M65.565.271h2.838v19.862h-2.838z"/>
        <path fill="#EA4335" d="M77.163 17.544c-1.47 0-2.51-.667-3.187-1.99l8.783-3.628-.294-.746c-.542-1.47-2.215-4.183-5.618-4.183-3.38 0-6.195 2.657-6.195 6.568 0 3.685 2.781 6.568 6.511 6.568 3.007 0 4.748-1.843 5.472-2.905l-2.238-1.492c-.747 1.085-1.764 1.808-3.234 1.808zm-.203-8.082c1.164 0 2.16.599 2.487 1.447l-5.935 2.453c0-2.759 1.956-3.9 3.448-3.9z"/>
    </g>
</svg>
