<svg xmlns="http://www.w3.org/2000/svg" width="31" height="39" viewBox="0 0 31 39">
    <g fill="#F9FAFB" fill-rule="nonzero" stroke="#CCC" stroke-width="2.16">
        <path d="M15.165 37.604a60.87 60.87 0 0 0 6.765-6.68c4.585-5.319 7.32-10.545 7.32-15.208 0-7.781-6.315-14.105-14.085-14.105-7.77 0-14.085 6.324-14.085 14.105 0 .422.023.85.068 1.284C1.6 21.346 4.25 26.11 8.4 30.924a60.87 60.87 0 0 0 6.764 6.68z"/>
        <path d="M11.148 15.884c0 2.304 1.886 4.192 4.186 4.192a4.187 4.187 0 0 0 4.185-4.192c0-2.303-1.886-4.192-4.185-4.192-2.3 0-4.186 1.889-4.186 4.192z"/>
    </g>
</svg>
