<svg xmlns="http://www.w3.org/2000/svg" width="89" height="21" viewBox="0 0 89 21">
    <g fill="none" fill-rule="evenodd">
        <path fill="#1976D2" d="M15.366 17.615a3.12 3.12 0 0 1-3.443-.862l-.006.007-4.385-5.256.007-.008a1.095 1.095 0 0 1-.13-.232 1.115 1.115 0 0 1 .66-1.452c.267-.101.548-.093.8-.005l.001-.003 6.054 2.061a3.058 3.058 0 0 1 2.21 1.856c.612 1.552-.18 3.295-1.768 3.894M13.008 3.304c1.381-.445 2.87.29 3.325 1.64.455 1.35-.296 2.805-1.678 3.25-1.382.444-2.87-.29-3.326-1.64-.454-1.35.297-2.806 1.679-3.25m8.386 1.744a1.2 1.2 0 0 0-.693-.468v-.004l-1.019-.268c-.015-.048-.024-.097-.04-.145-1.059-3.14-4.522-4.849-7.736-3.815A6.059 6.059 0 0 0 8.282 3.49L6.441 6.427 2.07 4.696l-.004.003a1.303 1.303 0 0 0-.894-.039 1.252 1.252 0 0 0-.82 1.588c.032.097.078.185.13.267l-.007.01 4.56 6.06.01.017.014.016 3.29 4.581c1.295 2.707 4.482 4.105 7.46 3.147 3.213-1.034 4.962-4.419 3.903-7.56a5.945 5.945 0 0 0-1.607-2.477 5.968 5.968 0 0 0 1.742-3.192l.986-.286v-.01a1.166 1.166 0 0 0 .561-1.773"/>
        <path fill="#000" d="M30.509 18.037h1.973c.58 0 .87-.282.87-.846v-2.583c0-.565-.29-.847-.87-.847H30.51v4.276zm0-6.518h1.973c.283 0 .45-.17.59-.31.141-.136.28-.254.28-.517V8.089c0-.564-.29-.848-.87-.848H30.51v4.278zm-2.363 8.15V5.602c0-.19.1-.286.3-.286h4.488c.88 0 1.552.224 2.015.67.462.448.693 1.104.693 1.967v3.364c0 .334-.111.622-.332.864-.22.24-.91.388-1.25.442l.41.036c.34.054.62.199.84.438.22.239.332.525.332.858v3.372c0 .865-.231 1.52-.693 1.968-.463.447-1.134.67-2.015.67h-4.487a.296.296 0 0 1-.218-.08.284.284 0 0 1-.083-.214zM38.151 7.435c0-.197.1-.296.302-.296h1.949a.3.3 0 0 1 .22.08.29.29 0 0 1 .082.216V19.67a.288.288 0 0 1-.082.214.302.302 0 0 1-.22.08h-1.949c-.201 0-.302-.098-.302-.294V7.435zM45.353 13.867h2.157c.578 0 .868-.282.868-.848V9.827c0-.564-.29-.846-.868-.846h-2.157v4.886zm-2.24 5.803V7.435a.29.29 0 0 1 .082-.216.3.3 0 0 1 .22-.08h4.503c.885 0 1.556.223 2.014.67.457.448.686 1.104.686 1.97v3.683c0 1.067-.352 1.813-1.053 2.237l.97 3.935c.056.22-.03.33-.256.33h-1.84c-.177 0-.283-.085-.32-.26l-.897-4.004h-1.666v3.97a.288.288 0 0 1-.081.214.3.3 0 0 1-.22.08h-1.84a.3.3 0 0 1-.22-.08.287.287 0 0 1-.081-.214zM55.39 18.169h1.987c.578 0 .867-.282.867-.847v-7.51c0-.579-.29-.868-.867-.868H55.39v9.225zm-2.363 1.5V7.436c0-.197.1-.296.302-.296h4.504c.884 0 1.556.227 2.013.68.458.453.687 1.113.687 1.976v7.531c0 .866-.23 1.52-.687 1.968-.457.447-1.129.67-2.013.67h-4.504c-.201 0-.302-.098-.302-.294zM63.032 19.67V5.6c0-.088.026-.159.078-.21a.28.28 0 0 1 .205-.075h6.696c.201 0 .302.095.302.286v1.433c0 .208-.1.312-.303.312h-4.703v4.068h3.595c.202 0 .304.101.304.304v1.615c0 .21-.102.314-.304.314h-3.595v4.304h4.498c.321 0 .4.02.444.062.043.042.064.117.064.223v1.434c0 .196-.1.295-.302.295h-6.696a.272.272 0 0 1-.205-.081.294.294 0 0 1-.078-.214M71.044 7.568A.361.361 0 0 1 71 7.403a.23.23 0 0 1 .045-.139c.055-.084.153-.125.294-.125h1.875c.208 0 .351.1.43.296l2.105 5.113 2.096-5.113c.08-.197.223-.296.43-.296h1.876c.14 0 .238.041.293.125.031.043.046.09.046.144a.428.428 0 0 1-.036.16l-3.433 7.594v4.435c0 .245-.125.368-.375.368h-1.803c-.25 0-.374-.123-.374-.368v-4.435l-3.424-7.594zM81.617 19.67V7.435c0-.09.027-.162.078-.215a.271.271 0 0 1 .206-.081h6.695c.202 0 .302.1.302.296v1.432c0 .208-.1.313-.302.313h-4.63v3.218h3.524c.2 0 .301.105.301.314v1.615c0 .208-.1.312-.301.312h-3.524v3.312h4.63c.117 0 .196.02.239.062.042.042.063.117.063.223v1.434c0 .196-.1.295-.302.295h-6.695a.272.272 0 0 1-.206-.081.294.294 0 0 1-.078-.214"/>
    </g>
</svg>
